<svg width="404" height="36" viewBox="0 0 404 36" fill="none" xmlns="http://www.w3.org/2000/svg">
<path d="M287.102 23.9388C291.44 30.1699 298.39 30.5311 303.483 25.9857C305.771 23.9388 307.627 21.2898 310.303 20.1459C312.052 19.3934 313.843 19.3031 315.613 20.0255C317.275 20.6878 318.371 22.1504 319.515 23.9866C320.659 25.8228 323.123 23.0658 321.979 21.2597C318.267 15.2092 311.879 14.4868 307.023 18.0087C304.584 19.7847 302.685 22.7046 300.16 24.2097C298.282 25.3235 296.232 25.7148 294.224 25.1128C292.347 24.5408 290.649 23.0995 289.29 21.1428C288.081 19.3969 285.915 22.1929 287.124 23.9087L287.102 23.9388Z" fill="#BCF095"/>
<path d="M377.877 0H382.328V11.8213C384.243 9.72398 386.924 8.57998 390.226 8.57998C397.119 8.57998 400.853 13.6326 400.853 22.8799V33.3666H396.401V22.8799C396.401 14.586 394.965 12.155 389.891 12.155C384.77 12.155 382.568 14.6813 382.328 20.735V33.3666H377.877V0Z" fill="#052F5F"/>
<path d="M360.112 34.32C352.31 34.32 347.045 29.172 347.045 21.4501C347.045 13.7757 352.262 8.58008 360.064 8.58008C365.713 8.58008 370.021 11.2971 371.983 15.6824L367.484 16.1114C366.287 13.3944 363.894 12.1551 360.064 12.1551C354.273 12.1551 351.832 14.9197 351.832 21.4501C351.832 27.9804 354.273 30.745 360.064 30.745C364.372 30.745 366.861 29.2197 367.819 25.7877L372.366 26.2167C370.643 31.174 366.143 34.32 360.112 34.32Z" fill="#052F5F"/>
<path d="M335.024 33.3665H330.572V9.5332H335.024V13.5849C337.274 11.0109 340.624 9.5332 344.645 9.5332V13.1082C338.135 13.1082 335.263 15.7775 335.024 22.2125V33.3665Z" fill="#052F5F"/>
<path d="M273.676 28.2187C269.033 31.8414 264.581 33.7957 260.944 33.7957C256.444 33.7957 253.572 30.745 253.572 26.312C253.572 18.0181 263.528 13.9664 273.245 17.9227C272.192 14.2524 269.464 12.1551 265.108 12.1551C261.614 12.1551 259.46 13.5374 258.598 16.4451L253.955 15.9684C255.343 11.3924 259.795 8.58008 265.635 8.58008C273.389 8.58008 278.128 13.4897 278.128 21.4501V33.319L273.676 33.3667V28.2187ZM273.676 22.0697C266.975 18.5424 258.024 20.6397 258.024 26.026C258.024 28.1234 259.412 29.458 262.045 29.458C265.347 29.458 269.464 27.4084 273.676 23.595V22.0697Z" fill="#052F5F"/>
<path d="M223.188 21.4501C223.188 13.7757 228.406 8.58008 236.208 8.58008C244.01 8.58008 249.275 13.7757 249.275 22.308V22.5464H228.023C228.262 28.314 230.799 30.745 236.83 30.745C240.995 30.745 243.149 29.5534 244.01 26.455L248.653 26.884C247.217 31.746 243.196 34.32 237.07 34.32C228.454 34.32 223.188 29.172 223.188 21.4501ZM228.119 18.8284H244.25C243.532 14.0617 240.995 12.1551 236.208 12.1551C231.278 12.1551 228.741 14.1571 228.119 18.8284Z" fill="#052F5F"/>
<path d="M198.04 26.884L202.492 26.1214C203.018 29.2674 204.598 30.5067 208.188 30.5067C212.065 30.5067 214.41 29.029 214.41 26.6457C214.41 20.5921 198.902 24.167 198.902 15.9207C198.902 11.7737 202.827 8.58008 207.996 8.58008C213.261 8.58008 217.857 11.8691 218.383 16.0161L213.932 16.4927C213.405 13.4421 211.825 12.1551 208.523 12.1551C205.364 12.1551 203.353 13.3467 203.353 15.2057C203.353 20.3537 218.862 17.2554 218.862 26.3597C218.862 31.0787 214.745 34.32 208.762 34.32C202.922 34.32 198.519 31.2694 198.04 26.884Z" fill="#052F5F"/>
<path d="M6.00498 35.1395C6.42341 35.4165 6.98128 35.3416 7.30955 34.9628C7.91139 34.2684 8.96 33.0557 10.3265 31.464C12.3036 29.1612 15.3687 25.5537 15.3687 25.5537C16.4357 26.1045 17.6285 26.4923 18.9471 26.7172C20.2656 26.942 21.6372 26.9558 23.0618 26.7585C26.5909 26.2696 29.4751 25.2188 31.6177 22.7237C33.7603 20.2287 33.9147 17.0745 33.4814 13.9629C33.0466 10.8503 31.5309 8.67188 29.3504 6.49206C27.8967 5.03885 23.4786 3.99746 19.9506 4.48499C16.4215 4.97386 13.5856 6.46581 11.443 8.96086C9.30036 11.4559 8.5909 15.3081 8.87904 17.3709C9.05455 18.6273 9.44672 19.781 10.0556 20.8319C10.6644 21.8827 11.4172 22.7827 12.3139 23.5317C12.3139 23.5317 9.64632 26.5945 7.22583 29.4117C6.02697 30.807 5.0233 31.9969 4.39351 32.7482C4.01174 33.2036 4.11407 33.8879 4.61016 34.2163L6.00498 35.1395ZM22.6327 23.6864C20.2044 24.0228 17.9857 23.2042 16.0758 21.94C14.1658 20.6758 13.062 18.9734 12.7643 16.8327C12.314 13.6089 13.9874 11.6743 14.552 11.0172C16.043 9.2819 17.9525 7.89157 20.3796 7.55652C22.8079 7.22015 25.0267 8.03922 26.9366 9.30342C28.8465 10.5676 29.2347 12.3692 29.5324 14.5099C29.8315 16.6516 29.9513 18.491 28.4604 20.2262C26.9694 21.9615 26.2338 23.1876 22.6327 23.6864Z" fill="#AEBBFE"/>
<path d="M163.768 13.2514V9.53336H168.076V4.29004H172.527V9.53336H178.75V13.2514H172.527V27.4083C172.527 29.887 173.341 30.602 176.261 30.602C176.261 30.602 176.835 30.602 177.84 30.1253V33.8433C176.739 34.32 176.069 34.32 176.069 34.32C170.66 34.32 168.076 31.4123 168.076 26.9793V13.2514H163.768Z" fill="#052F5F"/>
<path d="M136.217 9.53341H140.668V11.8214C142.583 9.72408 145.263 8.58008 148.566 8.58008C155.459 8.58008 159.193 13.6327 159.193 22.88V33.3667H154.741V22.88C154.741 14.5861 153.305 12.1551 148.231 12.1551C143.11 12.1551 140.908 14.6814 140.668 20.7351V33.3667H136.217V9.53341Z" fill="#052F5F"/>
<path d="M104.637 21.4501C104.637 13.7757 109.854 8.58008 117.656 8.58008C125.458 8.58008 130.724 13.7757 130.724 22.308V22.5464H109.471C109.711 28.314 112.247 30.745 118.279 30.745C122.443 30.745 124.597 29.5534 125.458 26.455L130.101 26.884C128.665 31.746 124.645 34.32 118.518 34.32C109.902 34.32 104.637 29.172 104.637 21.4501ZM109.567 18.8284H125.698C124.98 14.0617 122.443 12.1551 117.656 12.1551C112.726 12.1551 110.189 14.1571 109.567 18.8284Z" fill="#052F5F"/>
<path d="M93.7021 33.3666V0H98.1537V33.3666H93.7021Z" fill="#052F5F"/>
<path d="M82.8108 28.2187C78.1678 31.8414 73.7162 33.7957 70.0784 33.7957C65.579 33.7957 62.707 30.745 62.707 26.312C62.707 18.0181 72.6632 13.9664 82.38 17.9227C81.3269 14.2524 78.5986 12.1551 74.2427 12.1551C70.7485 12.1551 68.5946 13.5374 67.733 16.4451L63.09 15.9684C64.4781 11.3924 68.9296 8.58008 74.7693 8.58008C82.5236 8.58008 87.2623 13.4897 87.2623 21.4501V33.319L82.8108 33.3667V28.2187ZM82.8108 22.0697C76.1095 18.5424 67.1586 20.6397 67.1586 26.026C67.1586 28.1234 68.5467 29.458 71.1793 29.458C74.4821 29.458 78.5986 27.4084 82.8108 23.595V22.0697Z" fill="#052F5F"/>
<path d="M43.4014 13.2514V9.53336H47.7093V4.29004H52.1609V9.53336H58.3834V13.2514H52.1609V27.4083C52.1609 29.887 52.9746 30.602 55.8944 30.602C55.8944 30.602 56.4688 30.602 57.474 30.1253V33.8433C56.3731 34.32 55.7029 34.32 55.7029 34.32C50.2941 34.32 47.7093 31.4123 47.7093 26.9793V13.2514H43.4014Z" fill="#052F5F"/>
</svg>
