<svg width="226" height="80" viewBox="0 0 226 80" fill="none" xmlns="http://www.w3.org/2000/svg">
<path d="M99.2793 67.6737C104.08 74.6456 111.77 75.0497 117.407 69.9639C119.938 67.6737 121.992 64.7098 124.954 63.4299C126.888 62.5879 128.871 62.4868 130.829 63.2952C132.668 64.0361 133.882 65.6726 135.148 67.7271C136.414 69.7816 139.141 66.6969 137.875 64.6761C133.767 57.9063 126.697 57.0979 121.324 61.0386C118.625 63.0257 116.523 66.2927 113.729 67.9768C111.651 69.223 109.382 69.6608 107.161 68.9872C105.083 68.3473 103.204 66.7345 101.7 64.5453C100.362 62.5918 97.9658 65.7202 99.3032 67.64L99.2793 67.6737Z" fill="#BCF095"/>
<path d="M199.731 40.8887H204.658V54.1153C206.776 51.7687 209.743 50.4887 213.397 50.4887C221.025 50.4887 225.156 56.142 225.156 66.4887V78.222H220.23V66.4887C220.23 57.2087 218.641 54.4887 213.027 54.4887C207.359 54.4887 204.922 57.3153 204.658 64.0887V78.222H199.731V40.8887Z" fill="#212830"/>
<path d="M180.073 79.2888C171.439 79.2888 165.612 73.5288 165.612 64.8888C165.612 56.3021 171.386 50.4888 180.02 50.4888C186.27 50.4888 191.037 53.5288 193.209 58.4354L188.23 58.9154C186.906 55.8754 184.257 54.4888 180.02 54.4888C173.611 54.4888 170.909 57.5821 170.909 64.8888C170.909 72.1954 173.611 75.2888 180.02 75.2888C184.787 75.2888 187.541 73.5821 188.601 69.7421L193.633 70.2221C191.726 75.7688 186.747 79.2888 180.073 79.2888Z" fill="#212830"/>
<path d="M152.31 78.2218H147.384V51.5552H152.31V56.0885C154.799 53.2085 158.507 51.5552 162.957 51.5552V55.5552C155.753 55.5552 152.575 58.5418 152.31 65.7418V78.2218Z" fill="#212830"/>
<path d="M84.4217 72.4621C79.2837 76.5154 74.3576 78.7021 70.332 78.7021C65.3529 78.7021 62.1748 75.2888 62.1748 70.3288C62.1748 61.0488 73.1923 56.5154 83.945 60.9421C82.7797 56.8354 79.7604 54.4888 74.9403 54.4888C71.0736 54.4888 68.69 56.0354 67.7365 59.2888L62.5986 58.7554C64.1347 53.6354 69.0607 50.4888 75.5229 50.4888C84.1039 50.4888 89.3478 55.9821 89.3478 64.8888V78.1688L84.4217 78.2221V72.4621ZM84.4217 65.5821C77.0061 61.6354 67.1009 63.9821 67.1009 70.0088C67.1009 72.3554 68.637 73.8488 71.5503 73.8488C75.2051 73.8488 79.7604 71.5554 84.4217 67.2888V65.5821Z" fill="#212830"/>
<path d="M28.5518 64.8888C28.5518 56.3021 34.3254 50.4888 42.9593 50.4888C51.5932 50.4888 57.4197 56.3021 57.4197 65.8488V66.1154H33.9016C34.1664 72.5688 36.9738 75.2888 43.6478 75.2888C48.2561 75.2888 50.6397 73.9554 51.5932 70.4888L56.7311 70.9688C55.1421 76.4088 50.6927 79.2888 43.9127 79.2888C34.3783 79.2888 28.5518 73.5288 28.5518 64.8888ZM34.0075 61.9554H51.858C51.0635 56.6221 48.2561 54.4888 42.9593 54.4888C37.5035 54.4888 34.6961 56.7288 34.0075 61.9554Z" fill="#212830"/>
<path d="M0.722656 70.9688L5.64875 70.1154C6.23141 73.6354 7.97938 75.0221 11.952 75.0221C16.2425 75.0221 18.838 73.3688 18.838 70.7021C18.838 63.9288 1.67609 67.9288 1.67609 58.7021C1.67609 54.0621 6.01953 50.4888 11.7402 50.4888C17.5667 50.4888 22.6517 54.1688 23.2344 58.8088L18.3083 59.3421C17.7256 55.9288 15.9777 54.4888 12.3228 54.4888C8.82688 54.4888 6.60219 55.8221 6.60219 57.9021C6.60219 63.6621 23.7641 60.1954 23.7641 70.3821C23.7641 75.6621 19.2088 79.2888 12.5877 79.2888C6.12547 79.2888 1.25234 75.8754 0.722656 70.9688Z" fill="#212830"/>
<path d="M3.85647 39.3663C4.2762 39.6472 4.839 39.5711 5.16835 39.1869C5.82376 38.4225 7.00786 37.0383 8.56497 35.2045C10.7528 32.6279 14.1446 28.5915 14.1446 28.5915C15.3254 29.2078 16.6454 29.6417 18.1045 29.8933C19.5636 30.1449 21.0814 30.1603 22.6579 29.9395C26.5632 29.3926 29.7549 28.2168 32.1259 25.4252C34.4969 22.6335 34.6678 19.1043 34.1882 15.6228C33.7071 12.1402 32.0298 9.70278 29.6169 7.26382C28.0083 5.63784 23.1191 4.47264 19.215 5.01814C15.3096 5.56512 12.1715 7.23444 9.80045 10.0261C7.42943 12.8178 6.64433 17.1279 6.96319 19.4359C7.1574 20.8417 7.59139 22.1326 8.26514 23.3084C8.93888 24.4842 9.77191 25.4911 10.7642 26.3292C10.7642 26.3292 7.81227 29.7561 5.13374 32.9082C3.75021 34.5363 2.60159 35.9145 1.91216 36.7467C1.53517 37.2017 1.63575 37.8801 2.12593 38.2081L3.85647 39.3663ZM22.183 26.5023C19.4959 26.8787 17.0407 25.9628 14.9271 24.5483C12.8136 23.1338 11.5921 21.2289 11.2627 18.8337C10.7643 15.2267 12.6162 13.0621 13.2409 12.3269C14.8909 10.3853 17.0039 8.8297 19.6898 8.45482C22.3769 8.07846 24.8322 8.9949 26.9458 10.4094C29.0593 11.8239 29.4888 13.8397 29.8182 16.2349C30.1493 18.6312 30.2819 20.6892 28.6319 22.6308C26.982 24.5724 26.168 25.9442 22.183 26.5023Z" fill="#AEBBFE"/>
<path d="M178.364 14.8265V10.6665H183.131V4.7998H188.058V10.6665H194.943V14.8265H188.058V30.6665C188.058 33.4398 188.958 34.2398 192.189 34.2398C192.189 34.2398 192.825 34.2398 193.937 33.7065V37.8665C192.719 38.3998 191.977 38.3998 191.977 38.3998C185.992 38.3998 183.131 35.1465 183.131 30.1865V14.8265H178.364Z" fill="#212830"/>
<path d="M147.875 10.6668H152.801V13.2268C154.92 10.8801 157.886 9.6001 161.541 9.6001C169.168 9.6001 173.3 15.2534 173.3 25.6001V37.3334H168.374V25.6001C168.374 16.3201 166.785 13.6001 161.17 13.6001C155.502 13.6001 153.066 16.4268 152.801 23.2001V37.3334H147.875V10.6668Z" fill="#212830"/>
<path d="M112.929 24.0001C112.929 15.4134 118.702 9.6001 127.336 9.6001C135.97 9.6001 141.797 15.4134 141.797 24.9601V25.2268H118.279C118.543 31.6801 121.351 34.4001 128.025 34.4001C132.633 34.4001 135.017 33.0668 135.97 29.6001L141.108 30.0801C139.519 35.5201 135.07 38.4001 128.29 38.4001C118.755 38.4001 112.929 32.6401 112.929 24.0001ZM118.384 21.0668H136.235C135.44 15.7334 132.633 13.6001 127.336 13.6001C121.88 13.6001 119.073 15.8401 118.384 21.0668Z" fill="#212830"/>
<path d="M100.829 37.3333V0H105.755V37.3333H100.829Z" fill="#212830"/>
<path d="M88.7762 31.5734C83.6382 35.6268 78.7121 37.8134 74.6865 37.8134C69.7074 37.8134 66.5293 34.4001 66.5293 29.4401C66.5293 20.1601 77.5468 15.6268 88.2995 20.0534C87.1341 15.9468 84.1149 13.6001 79.2948 13.6001C75.428 13.6001 73.0445 15.1468 72.091 18.4001L66.953 17.8668C68.4891 12.7468 73.4152 9.6001 79.8774 9.6001C88.4584 9.6001 93.7023 15.0934 93.7023 24.0001V37.2801L88.7762 37.3334V31.5734ZM88.7762 24.6934C81.3605 20.7468 71.4554 23.0934 71.4554 29.1201C71.4554 31.4668 72.9915 32.9601 75.9048 32.9601C79.5596 32.9601 84.1149 30.6668 88.7762 26.4001V24.6934Z" fill="#212830"/>
<path d="M45.166 14.8265V10.6665H49.9332V4.7998H54.8593V10.6665H61.7452V14.8265H54.8593V30.6665C54.8593 33.4398 55.7598 34.2398 58.9909 34.2398C58.9909 34.2398 59.6265 34.2398 60.7388 33.7065V37.8665C59.5205 38.3998 58.779 38.3998 58.779 38.3998C52.7935 38.3998 49.9332 35.1465 49.9332 30.1865V14.8265H45.166Z" fill="#212830"/>
</svg>
