<svg width="22" height="22" viewBox="0 0 22 22" fill="none" xmlns="http://www.w3.org/2000/svg">
<path d="M12.75 21.5H9.25C8.78587 21.5 8.34075 21.3156 8.01256 20.9874C7.68437 20.6592 7.5 20.2141 7.5 19.75V13.1087L1.01625 6.625C0.687611 6.29832 0.501954 5.85463 0.5 5.39125V2.25C0.5 1.78587 0.684374 1.34075 1.01256 1.01256C1.34075 0.684374 1.78587 0.5 2.25 0.5H19.75C20.2141 0.5 20.6592 0.684374 20.9874 1.01256C21.3156 1.34075 21.5 1.78587 21.5 2.25V5.39125C21.498 5.85463 21.3124 6.29832 20.9837 6.625L14.5 13.1087V19.75C14.5 20.2141 14.3156 20.6592 13.9874 20.9874C13.6592 21.3156 13.2141 21.5 12.75 21.5ZM2.25 2.25V5.39125L9.25 12.3913V19.75H12.75V12.3913L19.75 5.39125V2.25H2.25Z" fill="#212830" stroke="#212830"/>
</svg>
