<svg width="48" height="48" viewBox="0 0 48 48" fill="none" xmlns="http://www.w3.org/2000/svg">
<path d="M7.1 41C5.9725 41 5.00695 40.5957 4.20335 39.7872C3.39975 38.9787 2.99864 38.008 3 36.875V12.125C3 10.9906 3.4018 10.0192 4.2054 9.21069C5.009 8.40219 5.97387 7.99863 7.1 8H39.9C41.0275 8 41.993 8.40425 42.7966 9.21275C43.6003 10.0213 44.0014 10.992 44 12.125V36.875C44 38.0094 43.5982 38.9808 42.7946 39.7893C41.991 40.5978 41.0261 41.0014 39.9 41H7.1ZM23.5 26.5625L39.9 16.25V12.125L23.5 22.4375L7.1 12.125V16.25L23.5 26.5625Z" fill="white"/>
</svg>
