<svg width="28" height="28" viewBox="0 0 28 28" fill="none" xmlns="http://www.w3.org/2000/svg">
<path d="M27.9996 26.5861L20.4476 19.0341C22.2624 16.8554 23.1674 14.061 22.9743 11.232C22.7812 8.40309 21.5049 5.75751 19.4109 3.84563C17.3169 1.93376 14.5664 0.90279 11.7316 0.967202C8.8968 1.03161 6.19598 2.18644 4.19097 4.19146C2.18596 6.19647 1.03112 8.89729 0.966713 11.7321C0.902302 14.5669 1.93327 17.3173 3.84514 19.4114C5.75702 21.5054 8.4026 22.7817 11.2315 22.9748C14.0605 23.1679 16.8549 22.2629 19.0336 20.4481L26.5856 28.0001L27.9996 26.5861ZM2.99963 12.0001C2.99963 10.2201 3.52747 8.48003 4.5164 6.99998C5.50533 5.51994 6.91094 4.36639 8.55548 3.6852C10.2 3.00401 12.0096 2.82578 13.7554 3.17305C15.5013 3.52032 17.1049 4.37748 18.3636 5.63615C19.6223 6.89483 20.4794 8.49847 20.8267 10.2443C21.174 11.9901 20.9957 13.7997 20.3145 15.4443C19.6334 17.0888 18.4798 18.4944 16.9998 19.4833C15.5197 20.4723 13.7797 21.0001 11.9996 21.0001C9.61349 20.9975 7.32584 20.0484 5.63859 18.3612C3.95134 16.6739 3.00227 14.3863 2.99963 12.0001Z" fill="#AEB3BE"/>
</svg>
